<?xml version="1.0" standalone="no"?>
<!DOCTYPE svg PUBLIC "-//W3C//DTD SVG 20010904//EN"
 "http://www.w3.org/TR/2001/REC-SVG-20010904/DTD/svg10.dtd">
<svg version="1.0" xmlns="http://www.w3.org/2000/svg"
 width="518.000000pt" height="116.000000pt" viewBox="0 0 518.000000 116.000000"
 preserveAspectRatio="xMidYMid meet">
<metadata>
Created by potrace 1.16, written by Peter Selinger 2001-2019
</metadata>
<g transform="translate(0.000000,116.000000) scale(0.100000,-0.100000)"
fill="#000000" stroke="none">
<path d="M82 1058 c-9 -9 -12 -129 -12 -479 0 -257 3 -474 6 -483 5 -14 39
-16 273 -16 194 0 270 3 279 12 17 17 17 949 0 966 -17 17 -529 17 -546 0z
m382 -157 c56 -57 96 -104 92 -110 -5 -7 -71 -11 -206 -11 -135 0 -201 4 -206
11 -8 14 184 209 206 209 8 0 60 -45 114 -99z m-53 -155 c43 -18 86 -58 99
-91 15 -39 12 -122 -5 -155 -8 -16 -32 -42 -52 -57 -31 -24 -46 -28 -103 -28
-58 0 -71 4 -104 29 -21 15 -42 40 -48 55 -5 14 -14 34 -19 43 -15 28 -11 56
16 112 41 86 134 126 216 92z m149 -375 c0 -13 -202 -212 -211 -209 -19 7
-208 202 -203 209 7 12 414 12 414 0z"/>
<path d="M1390 1051 c-25 -10 -81 -37 -125 -61 -150 -81 -180 -97 -345 -184
-91 -48 -173 -97 -184 -109 -14 -17 -17 -33 -13 -71 5 -54 3 -51 132 -163 33
-28 139 -119 235 -203 96 -83 189 -158 205 -166 25 -12 81 -14 300 -12 261 3
270 4 273 23 3 19 -17 37 -361 325 -16 14 -51 43 -76 65 -26 22 -69 58 -95 80
-115 94 -151 127 -151 136 0 6 29 27 65 46 36 19 108 57 160 85 52 28 127 67
165 88 75 39 185 99 198 107 4 3 3 11 -4 19 -18 22 -318 18 -379 -5z"/>
<path d="M2097 1054 c-100 -27 -157 -83 -182 -177 -13 -50 -13 -64 -1 -111 8
-30 19 -63 25 -74 27 -51 111 -100 391 -230 36 -16 99 -45 140 -65 41 -19 116
-53 165 -76 133 -62 136 -64 127 -73 -4 -4 -194 -9 -422 -10 l-415 -3 0 -75 0
-75 594 -3 c390 -1 598 1 605 8 5 5 19 10 31 10 36 0 112 56 139 103 22 37 26
56 26 125 0 44 -4 92 -10 106 -17 45 -84 101 -170 143 -96 47 -251 120 -325
153 -46 21 -270 126 -323 152 -12 7 -19 15 -14 20 4 4 188 9 407 10 l400 3 0
75 0 75 -570 1 c-443 1 -581 -1 -618 -12z"/>
<path d="M3412 1058 c-19 -19 -17 -951 2 -967 19 -16 1251 -10 1317 6 154 39
280 161 335 327 21 66 21 236 0 302 -57 172 -174 288 -333 326 -71 17 -1304
23 -1321 6z m956 -167 c70 -36 77 -65 77 -305 0 -206 -1 -212 -25 -256 -14
-24 -40 -55 -59 -67 -32 -22 -43 -23 -212 -23 l-179 0 0 335 0 335 180 0 c158
0 185 -2 218 -19z"/>
</g>
</svg>
